<svg width="365" height="366" viewBox="0 0 365 366" fill="none" xmlns="http://www.w3.org/2000/svg">
<path d="M131.393 0H116.793V14.6002H131.393V0Z" fill="white"/>
<path d="M175.2 0H160.6V14.6002H175.2V0Z" fill="white"/>
<path d="M204.399 0H189.799V14.6002H204.399V0Z" fill="white"/>
<path d="M219.001 0H204.4V14.6002H219.001V0Z" fill="white"/>
<path d="M131.407 14.6367H116.807V29.237H131.407V14.6367Z" fill="white"/>
<path d="M145.997 14.6367H131.396V29.237H145.997V14.6367Z" fill="white"/>
<path d="M175.2 14.6367H160.6V29.237H175.2V14.6367Z" fill="white"/>
<path d="M204.401 14.623H189.801V29.2233H204.401V14.623Z" fill="white"/>
<path d="M219.001 14.6367H204.4V29.237H219.001V14.6367Z" fill="white"/>
<path d="M131.407 29.2129H116.807V43.8131H131.407V29.2129Z" fill="white"/>
<path d="M160.602 29.2129H146.002V43.8131H160.602V29.2129Z" fill="white"/>
<path d="M175.2 29.2129H160.6V43.8131H175.2V29.2129Z" fill="white"/>
<path d="M204.401 29.2129H189.801V43.8131H204.401V29.2129Z" fill="white"/>
<path d="M219.001 29.2129H204.4V43.8131H219.001V29.2129Z" fill="white"/>
<path d="M248.204 29.2129H233.604V43.8131H248.204V29.2129Z" fill="white"/>
<path d="M160.606 43.8037H146.006V58.4039H160.606V43.8037Z" fill="white"/>
<path d="M189.801 43.8135H175.201V58.4137H189.801V43.8135Z" fill="white"/>
<path d="M204.401 43.8135H189.801V58.4137H204.401V43.8135Z" fill="white"/>
<path d="M131.407 58.3936H116.807V72.9938H131.407V58.3936Z" fill="white"/>
<path d="M189.801 58.3936H175.201V72.9938H189.801V58.3936Z" fill="white"/>
<path d="M248.204 58.3936H233.604V72.9938H248.204V58.3936Z" fill="white"/>
<path d="M145.997 73.0234H131.396V87.6237H145.997V73.0234Z" fill="white"/>
<path d="M160.606 73.0234H146.006V87.6237H160.606V73.0234Z" fill="white"/>
<path d="M175.2 73.0234H160.6V87.6237H175.2V73.0234Z" fill="white"/>
<path d="M189.809 73.0234H175.209V87.6237H189.809V73.0234Z" fill="white"/>
<path d="M219.001 73.0234H204.4V87.6237H219.001V73.0234Z" fill="white"/>
<path d="M131.407 87.6211H116.807V102.221H131.407V87.6211Z" fill="white"/>
<path d="M160.602 87.6211H146.002V102.221H160.602V87.6211Z" fill="white"/>
<path d="M189.801 87.6211H175.201V102.221H189.801V87.6211Z" fill="white"/>
<path d="M219.001 87.6211H204.4V102.221H219.001V87.6211Z" fill="white"/>
<path d="M248.204 87.6211H233.604V102.221H248.204V87.6211Z" fill="white"/>
<path d="M145.997 102.209H131.396V116.809H145.997V102.209Z" fill="white"/>
<path d="M160.606 102.209H146.006V116.809H160.606V102.209Z" fill="white"/>
<path d="M204.401 102.211H189.801V116.811H204.401V102.211Z" fill="white"/>
<path d="M219.001 102.209H204.4V116.809H219.001V102.209Z" fill="white"/>
<path d="M14.6002 116.797H0V131.397H14.6002V116.797Z" fill="white"/>
<path d="M58.4088 116.797H43.8086V131.397H58.4088V116.797Z" fill="white"/>
<path d="M72.9948 116.797H58.3945V131.397H72.9948V116.797Z" fill="white"/>
<path d="M87.6041 116.797H73.0039V131.397H87.6041V116.797Z" fill="white"/>
<path d="M102.202 116.797H87.6016V131.397H102.202V116.797Z" fill="white"/>
<path d="M116.801 116.797H102.201V131.397H116.801V116.797Z" fill="white"/>
<path d="M131.407 116.797H116.807V131.397H131.407V116.797Z" fill="white"/>
<path d="M160.602 116.797H146.002V131.397H160.602V116.797Z" fill="white"/>
<path d="M175.2 116.797H160.6V131.397H175.2V116.797Z" fill="white"/>
<path d="M219.001 116.797H204.4V131.397H219.001V116.797Z" fill="white"/>
<path d="M233.6 116.797H219V131.397H233.6V116.797Z" fill="white"/>
<path d="M262.798 116.797H248.197V131.397H262.798V116.797Z" fill="white"/>
<path d="M306.598 116.797H291.998V131.397H306.598V116.797Z" fill="white"/>
<path d="M335.792 116.797H321.191V131.397H335.792V116.797Z" fill="white"/>
<path d="M350.409 116.797H335.809V131.397H350.409V116.797Z" fill="white"/>
<path d="M364.997 116.797H350.396V131.397H364.997V116.797Z" fill="white"/>
<path d="M29.2057 131.412H14.6055V146.012H29.2057V131.412Z" fill="white"/>
<path d="M43.7955 131.411H29.1953V146.011H43.7955V131.411Z" fill="white"/>
<path d="M72.9948 131.411H58.3945V146.011H72.9948V131.411Z" fill="white"/>
<path d="M87.6041 131.412H73.0039V146.012H87.6041V131.412Z" fill="white"/>
<path d="M131.407 131.412H116.807V146.012H131.407V131.412Z" fill="white"/>
<path d="M175.2 131.411H160.6V146.011H175.2V131.411Z" fill="white"/>
<path d="M219.001 131.412H204.4V146.012H219.001V131.412Z" fill="white"/>
<path d="M233.594 131.411H218.994V146.011H233.594V131.411Z" fill="white"/>
<path d="M306.598 131.412H291.998V146.012H306.598V131.412Z" fill="white"/>
<path d="M321.206 131.412H306.605V146.012H321.206V131.412Z" fill="white"/>
<path d="M335.792 131.411H321.191V146.011H335.792V131.411Z" fill="white"/>
<path d="M350.409 131.412H335.809V146.012H350.409V131.412Z" fill="white"/>
<path d="M14.6002 146.017H0V160.617H14.6002V146.017Z" fill="white"/>
<path d="M58.403 146.017H43.8027V160.617H58.403V146.017Z" fill="white"/>
<path d="M72.9948 146.017H58.3945V160.617H72.9948V146.017Z" fill="white"/>
<path d="M102.202 146.017H87.6016V160.617H102.202V146.017Z" fill="white"/>
<path d="M116.801 146.017H102.201V160.617H116.801V146.017Z" fill="white"/>
<path d="M145.997 146.017H131.396V160.617H145.997V146.017Z" fill="white"/>
<path d="M175.2 146.017H160.6V160.617H175.2V146.017Z" fill="white"/>
<path d="M189.801 146.017H175.201V160.617H189.801V146.017Z" fill="white"/>
<path d="M233.6 146.017H219V160.617H233.6V146.017Z" fill="white"/>
<path d="M248.204 146.017H233.604V160.617H248.204V146.017Z" fill="white"/>
<path d="M306.602 146.017H292.002V160.617H306.602V146.017Z" fill="white"/>
<path d="M321.206 146.017H306.605V160.617H321.206V146.017Z" fill="white"/>
<path d="M364.997 146.017H350.396V160.617H364.997V146.017Z" fill="white"/>
<path d="M29.2057 160.614H14.6055V175.214H29.2057V160.614Z" fill="white"/>
<path d="M58.4088 160.616H43.8086V175.216H58.4088V160.616Z" fill="white"/>
<path d="M72.9948 160.616H58.3945V175.216H72.9948V160.616Z" fill="white"/>
<path d="M116.801 160.616H102.201V175.216H116.801V160.616Z" fill="white"/>
<path d="M175.2 160.614H160.6V175.214H175.2V160.614Z" fill="white"/>
<path d="M189.801 160.614H175.201V175.214H189.801V160.614Z" fill="white"/>
<path d="M219.001 160.616H204.4V175.216H219.001V160.616Z" fill="white"/>
<path d="M233.594 160.614H218.994V175.214H233.594V160.614Z" fill="white"/>
<path d="M262.798 160.616H248.197V175.216H262.798V160.616Z" fill="white"/>
<path d="M292.003 160.614H277.402V175.214H292.003V160.614Z" fill="white"/>
<path d="M321.206 160.616H306.605V175.216H321.206V160.616Z" fill="white"/>
<path d="M335.792 160.616H321.191V175.216H335.792V160.616Z" fill="white"/>
<path d="M350.409 160.616H335.809V175.216H350.409V160.616Z" fill="white"/>
<path d="M364.997 160.616H350.396V175.216H364.997V160.616Z" fill="white"/>
<path d="M43.7955 175.23H29.1953V189.831H43.7955V175.23Z" fill="white"/>
<path d="M58.4088 175.23H43.8086V189.831H58.4088V175.23Z" fill="white"/>
<path d="M102.202 175.23H87.6016V189.831H102.202V175.23Z" fill="white"/>
<path d="M131.407 175.23H116.807V189.831H131.407V175.23Z" fill="white"/>
<path d="M160.602 175.23H146.002V189.831H160.602V175.23Z" fill="white"/>
<path d="M175.2 175.23H160.6V189.831H175.2V175.23Z" fill="white"/>
<path d="M204.401 175.23H189.801V189.831H204.401V175.23Z" fill="white"/>
<path d="M219.001 175.23H204.4V189.831H219.001V175.23Z" fill="white"/>
<path d="M248.204 175.23H233.604V189.831H248.204V175.23Z" fill="white"/>
<path d="M277.399 175.23H262.799V189.831H277.399V175.23Z" fill="white"/>
<path d="M364.997 175.23H350.396V189.831H364.997V175.23Z" fill="white"/>
<path d="M14.6002 189.815H0V204.416H14.6002V189.815Z" fill="white"/>
<path d="M29.2057 189.815H14.6055V204.416H29.2057V189.815Z" fill="white"/>
<path d="M43.7955 189.815H29.1953V204.416H43.7955V189.815Z" fill="white"/>
<path d="M116.801 189.815H102.201V204.416H116.801V189.815Z" fill="white"/>
<path d="M131.407 189.815H116.807V204.416H131.407V189.815Z" fill="white"/>
<path d="M145.997 189.815H131.396V204.416H145.997V189.815Z" fill="white"/>
<path d="M189.801 189.815H175.201V204.416H189.801V189.815Z" fill="white"/>
<path d="M219.001 189.815H204.4V204.416H219.001V189.815Z" fill="white"/>
<path d="M233.594 189.815H218.994V204.416H233.594V189.815Z" fill="white"/>
<path d="M248.204 189.815H233.604V204.416H248.204V189.815Z" fill="white"/>
<path d="M306.598 189.815H291.998V204.416H306.598V189.815Z" fill="white"/>
<path d="M350.409 189.815H335.809V204.416H350.409V189.815Z" fill="white"/>
<path d="M14.6002 204.403H0V219.004H14.6002V204.403Z" fill="white"/>
<path d="M29.2057 204.403H14.6055V219.004H29.2057V204.403Z" fill="white"/>
<path d="M87.5983 204.403H72.998V219.004H87.5983V204.403Z" fill="white"/>
<path d="M102.202 204.403H87.6016V219.004H102.202V204.403Z" fill="white"/>
<path d="M131.407 204.403H116.807V219.004H131.407V204.403Z" fill="white"/>
<path d="M145.997 204.403H131.396V219.004H145.997V204.403Z" fill="white"/>
<path d="M160.602 204.403H146.002V219.004H160.602V204.403Z" fill="white"/>
<path d="M219.001 204.403H204.4V219.004H219.001V204.403Z" fill="white"/>
<path d="M233.594 204.403H218.994V219.004H233.594V204.403Z" fill="white"/>
<path d="M262.798 204.403H248.197V219.004H262.798V204.403Z" fill="white"/>
<path d="M306.602 204.403H292.002V219.004H306.602V204.403Z" fill="white"/>
<path d="M321.206 204.403H306.605V219.004H321.206V204.403Z" fill="white"/>
<path d="M335.798 204.403H321.197V219.004H335.798V204.403Z" fill="white"/>
<path d="M350.409 204.403H335.809V219.004H350.409V204.403Z" fill="white"/>
<path d="M364.997 204.403H350.396V219.004H364.997V204.403Z" fill="white"/>
<path d="M14.6002 219.015H0V233.615H14.6002V219.015Z" fill="white"/>
<path d="M43.8034 219.015H29.2031V233.615H43.8034V219.015Z" fill="white"/>
<path d="M72.9948 219.015H58.3945V233.615H72.9948V219.015Z" fill="white"/>
<path d="M145.997 219.015H131.396V233.615H145.997V219.015Z" fill="white"/>
<path d="M189.809 219.015H175.209V233.615H189.809V219.015Z" fill="white"/>
<path d="M204.399 219.015H189.799V233.615H204.399V219.015Z" fill="white"/>
<path d="M219.001 219.015H204.4V233.615H219.001V219.015Z" fill="white"/>
<path d="M233.594 219.015H218.994V233.615H233.594V219.015Z" fill="white"/>
<path d="M262.807 219.015H248.207V233.615H262.807V219.015Z" fill="white"/>
<path d="M277.399 219.015H262.799V233.615H277.399V219.015Z" fill="white"/>
<path d="M292.003 219.015H277.402V233.615H292.003V219.015Z" fill="white"/>
<path d="M321.206 219.015H306.605V233.615H321.206V219.015Z" fill="white"/>
<path d="M335.798 219.015H321.197V233.615H335.798V219.015Z" fill="white"/>
<path d="M364.997 219.015H350.396V233.615H364.997V219.015Z" fill="white"/>
<path d="M14.6002 233.629H0V248.229H14.6002V233.629Z" fill="white"/>
<path d="M43.7955 233.629H29.1953V248.229H43.7955V233.629Z" fill="white"/>
<path d="M72.9948 233.629H58.3945V248.229H72.9948V233.629Z" fill="white"/>
<path d="M87.6041 233.629H73.0039V248.229H87.6041V233.629Z" fill="white"/>
<path d="M102.202 233.629H87.6016V248.229H102.202V233.629Z" fill="white"/>
<path d="M131.407 233.629H116.807V248.229H131.407V233.629Z" fill="white"/>
<path d="M145.997 233.629H131.396V248.229H145.997V233.629Z" fill="white"/>
<path d="M160.602 233.629H146.002V248.229H160.602V233.629Z" fill="white"/>
<path d="M175.2 233.629H160.6V248.229H175.2V233.629Z" fill="white"/>
<path d="M189.801 233.629H175.201V248.229H189.801V233.629Z" fill="white"/>
<path d="M233.594 233.629H218.994V248.229H233.594V233.629Z" fill="white"/>
<path d="M248.204 233.629H233.604V248.229H248.204V233.629Z" fill="white"/>
<path d="M262.798 233.629H248.197V248.229H262.798V233.629Z" fill="white"/>
<path d="M277.399 233.629H262.799V248.229H277.399V233.629Z" fill="white"/>
<path d="M292.003 233.629H277.402V248.229H292.003V233.629Z" fill="white"/>
<path d="M306.598 233.629H291.998V248.229H306.598V233.629Z" fill="white"/>
<path d="M335.792 233.629H321.191V248.229H335.792V233.629Z" fill="white"/>
<path d="M350.409 233.629H335.809V248.229H350.409V233.629Z" fill="white"/>
<path d="M131.407 248.226H116.807V262.826H131.407V248.226Z" fill="white"/>
<path d="M175.2 248.226H160.6V262.826H175.2V248.226Z" fill="white"/>
<path d="M248.204 248.226H233.604V262.826H248.204V248.226Z" fill="white"/>
<path d="M306.602 248.226H292.002V262.826H306.602V248.226Z" fill="white"/>
<path d="M335.798 248.226H321.197V262.826H335.798V248.226Z" fill="white"/>
<path d="M350.409 248.226H335.809V262.826H350.409V248.226Z" fill="white"/>
<path d="M131.407 262.797H116.807V277.397H131.407V262.797Z" fill="white"/>
<path d="M145.997 262.813H131.396V277.414H145.997V262.813Z" fill="white"/>
<path d="M189.801 262.797H175.201V277.397H189.801V262.797Z" fill="white"/>
<path d="M204.401 262.797H189.801V277.397H204.401V262.797Z" fill="white"/>
<path d="M219.001 262.797H204.4V277.397H219.001V262.797Z" fill="white"/>
<path d="M248.204 262.813H233.604V277.414H248.204V262.813Z" fill="white"/>
<path d="M277.409 262.813H262.809V277.414H277.409V262.813Z" fill="white"/>
<path d="M306.602 262.813H292.002V277.414H306.602V262.813Z" fill="white"/>
<path d="M364.997 262.797H350.396V277.397H364.997V262.797Z" fill="white"/>
<path d="M131.407 277.399H116.807V292H131.407V277.399Z" fill="white"/>
<path d="M175.2 277.399H160.6V292H175.2V277.399Z" fill="white"/>
<path d="M204.401 277.399H189.801V292H204.401V277.399Z" fill="white"/>
<path d="M233.6 277.399H219V292H233.6V277.399Z" fill="white"/>
<path d="M248.204 277.399H233.604V292H248.204V277.399Z" fill="white"/>
<path d="M306.598 277.399H291.998V292H306.598V277.399Z" fill="white"/>
<path d="M364.997 277.399H350.396V292H364.997V277.399Z" fill="white"/>
<path d="M131.393 292.015H116.793V306.615H131.393V292.015Z" fill="white"/>
<path d="M175.2 292.015H160.6V306.615H175.2V292.015Z" fill="white"/>
<path d="M204.399 292.015H189.799V306.615H204.399V292.015Z" fill="white"/>
<path d="M233.6 292.014H219V306.614H233.6V292.014Z" fill="white"/>
<path d="M248.204 292.014H233.604V306.614H248.204V292.014Z" fill="white"/>
<path d="M262.807 292.014H248.207V306.614H262.807V292.014Z" fill="white"/>
<path d="M277.399 292.014H262.799V306.614H277.399V292.014Z" fill="white"/>
<path d="M292.003 292.014H277.402V306.614H292.003V292.014Z" fill="white"/>
<path d="M306.598 292.014H291.998V306.614H306.598V292.014Z" fill="white"/>
<path d="M350.397 292.014H335.797V306.614H350.397V292.014Z" fill="white"/>
<path d="M364.997 292.014H350.396V306.614H364.997V292.014Z" fill="white"/>
<path d="M131.407 306.612H116.807V321.213H131.407V306.612Z" fill="white"/>
<path d="M145.997 306.612H131.396V321.213H145.997V306.612Z" fill="white"/>
<path d="M160.606 306.612H146.006V321.213H160.606V306.612Z" fill="white"/>
<path d="M189.801 306.612H175.201V321.213H189.801V306.612Z" fill="white"/>
<path d="M204.401 306.612H189.801V321.213H204.401V306.612Z" fill="white"/>
<path d="M233.594 306.612H218.994V321.213H233.594V306.612Z" fill="white"/>
<path d="M262.794 306.612H248.193V321.213H262.794V306.612Z" fill="white"/>
<path d="M277.399 306.612H262.799V321.213H277.399V306.612Z" fill="white"/>
<path d="M350.409 306.612H335.809V321.213H350.409V306.612Z" fill="white"/>
<path d="M364.997 306.612H350.396V321.213H364.997V306.612Z" fill="white"/>
<path d="M145.997 321.2H131.396V335.8H145.997V321.2Z" fill="white"/>
<path d="M160.602 321.2H146.002V335.8H160.602V321.2Z" fill="white"/>
<path d="M175.2 321.2H160.6V335.8H175.2V321.2Z" fill="white"/>
<path d="M204.401 321.2H189.801V335.8H204.401V321.2Z" fill="white"/>
<path d="M248.204 321.2H233.604V335.8H248.204V321.2Z" fill="white"/>
<path d="M262.798 321.2H248.197V335.8H262.798V321.2Z" fill="white"/>
<path d="M306.598 321.2H291.998V335.8H306.598V321.2Z" fill="white"/>
<path d="M321.206 321.2H306.605V335.8H321.206V321.2Z" fill="white"/>
<path d="M335.792 321.2H321.191V335.8H335.792V321.2Z" fill="white"/>
<path d="M350.409 321.2H335.809V335.8H350.409V321.2Z" fill="white"/>
<path d="M364.997 321.2H350.396V335.8H364.997V321.2Z" fill="white"/>
<path d="M145.997 335.816H131.396V350.417H145.997V335.816Z" fill="white"/>
<path d="M175.2 335.816H160.6V350.417H175.2V335.816Z" fill="white"/>
<path d="M189.801 335.816H175.201V350.417H189.801V335.816Z" fill="white"/>
<path d="M204.401 335.816H189.801V350.417H204.401V335.816Z" fill="white"/>
<path d="M277.399 335.816H262.799V350.417H277.399V335.816Z" fill="white"/>
<path d="M292.003 335.816H277.402V350.417H292.003V335.816Z" fill="white"/>
<path d="M306.598 335.816H291.998V350.417H306.598V335.816Z" fill="white"/>
<path d="M335.792 335.816H321.191V350.417H335.792V335.816Z" fill="white"/>
<path d="M350.409 335.816H335.809V350.417H350.409V335.816Z" fill="white"/>
<path d="M364.997 335.816H350.396V350.417H364.997V335.816Z" fill="white"/>
<path d="M131.407 350.402H116.807V365.003H131.407V350.402Z" fill="white"/>
<path d="M145.997 350.402H131.396V365.003H145.997V350.402Z" fill="white"/>
<path d="M160.602 350.402H146.002V365.003H160.602V350.402Z" fill="white"/>
<path d="M175.2 350.402H160.6V365.003H175.2V350.402Z" fill="white"/>
<path d="M189.801 350.402H175.201V365.003H189.801V350.402Z" fill="white"/>
<path d="M204.401 350.404H189.801V365.005H204.401V350.404Z" fill="white"/>
<path d="M233.594 350.402H218.994V365.003H233.594V350.402Z" fill="white"/>
<path d="M248.204 350.404H233.604V365.005H248.204V350.404Z" fill="white"/>
<path d="M277.399 350.402H262.799V365.003H277.399V350.402Z" fill="white"/>
<path d="M321.206 350.404H306.605V365.005H321.206V350.404Z" fill="white"/>
<path d="M364.997 350.404H350.396V365.005H364.997V350.404Z" fill="white"/>
<path d="M86.8714 0H15.3302H0V15.3302V86.8714V102.202H15.3302H86.8714H102.202V86.8714V15.3302V0H86.8714ZM86.8714 86.8714H15.3302V15.3302H86.8714V86.8714Z" fill="white"/>
<path d="M349.668 0H278.127H262.797V15.3302V86.8714V102.202H278.127H349.668H364.999V86.8714V15.3302V0H349.668ZM349.668 86.8714H278.127V15.3302H349.668V86.8714Z" fill="white"/>
<path d="M86.8714 262.795H15.3302H0V278.125V349.666V364.997H15.3302H86.8714H102.202V349.666V278.125V262.795H86.8714ZM86.8714 349.666H15.3302V278.125H86.8714V349.666Z" fill="white"/>
<path d="M72.996 29.2129H29.1953V73.0136H72.996V29.2129Z" fill="white"/>
<path d="M335.799 29.2129H291.998V73.0136H335.799V29.2129Z" fill="white"/>
<path d="M73.0038 292.015H29.2031V335.815H73.0038V292.015Z" fill="white"/>
</svg>
