<svg width="154" height="154" viewBox="0 0 154 154" fill="none" xmlns="http://www.w3.org/2000/svg">
<path fill-rule="evenodd" clip-rule="evenodd" d="M2.65222 77.0034C2.65222 35.9929 36.0106 2.64511 76.9931 2.64511C117.993 2.64511 151.334 35.9929 151.334 77.0034C151.334 117.998 117.993 151.343 76.9931 151.343C36.0106 151.343 2.65222 117.998 2.65222 77.0034ZM0 77.0034C0 119.463 34.54 154 76.9931 154C119.451 154 154 119.463 154 77.0034C154 34.5382 119.451 4.9632e-05 76.9931 4.9632e-05C34.54 4.9632e-05 0 34.5382 0 77.0034Z" fill="white"/>
<path fill-rule="evenodd" clip-rule="evenodd" d="M125.984 69.1135C125.402 69.6038 124.784 70.0851 124.084 70.6032C119.835 73.8874 113.113 76.5028 103.8 78.9888C84.4671 84.1902 70.4414 84.9619 54.4756 88.8605C51.3801 89.6098 48.1153 90.6639 45.1041 91.891C48.1153 93.3968 51.3156 94.7937 54.6154 96.0418C61.0699 94.1914 64.2124 93.3421 73.596 91.7579C77.167 91.1398 88.1873 89.2159 96.1579 87.5335C110.531 84.4649 131.586 77.8245 125.984 69.1135ZM116.723 51.0382C113.668 49.6673 109.834 48.3035 105.778 47.2181C103.961 48.6697 101.851 49.9474 98.8312 51.122C103.899 52.0237 107.703 53.4242 111.961 54.6495C112.731 55.0385 116.18 51.7997 116.723 51.0382ZM46.2823 70.2514C65.0666 64.7493 84.7875 63.0476 104.748 57.7486C96.9547 55.6422 92.6833 54.7513 84.4321 55.7126C72.4492 57.1234 59.2933 59.7285 48.0104 63.0651C43.5987 64.4006 20.3205 70.9779 27.0342 80.2056C27.0342 80.3279 31.0204 74.7277 46.2823 70.2514ZM33.3365 101.959C33.2962 103.664 34.3291 105.199 36.6312 107.076C36.9113 106.141 37.3279 105.462 38.0019 104.574C36.4088 103.771 34.842 102.878 33.3365 101.959ZM42.1457 101.089C43.5514 100.25 45.2528 99.417 47.205 98.6484C44.5266 97.5351 41.7955 96.3219 39.012 95.0456C37.7568 95.8213 36.6312 96.6599 35.7349 97.5123C37.8566 98.7375 39.9749 99.9512 42.1457 101.089ZM114.351 61.1707C110.566 62.9217 105.121 64.7404 97.3433 66.7047C90.9762 68.301 75.4079 70.5243 58.7031 74.1657C53.3901 75.3107 39.082 78.7002 32.0358 84.6872C34.0017 86.2629 35.2097 86.6533 37.4014 87.8732C40.3338 86.0021 44.2604 84.2354 50.1549 82.6722C60.4223 79.9358 68.0603 78.7369 77.2808 77.2853C86.4596 75.8499 103.66 72.2543 113.204 68.8281C116.308 67.7076 119.2 66.2758 121.353 64.6023C120.693 63.8579 114.557 60.9014 114.351 61.1707ZM119.897 57.7678C121.765 58.6884 123.451 59.3732 125.082 60.5178C126.255 58.2787 125.534 56.8168 123.078 54.7513C122.15 55.877 121.061 56.8536 119.897 57.7678ZM32.4209 91.6844C30.7666 90.7602 29.6164 90.1055 28.2158 89.1339C27.4543 90.7652 28.8759 92.5753 30.3867 93.4528C31.0291 92.8119 31.7731 92.2849 32.4209 91.6844ZM112.364 39.8377C112.045 41.1226 110.671 42.5863 109.72 43.5911C112.556 44.3297 115.392 45.3694 118.129 46.4145C117.805 43.9062 114.876 41.4726 112.364 39.8377ZM23.9793 55.8421C43.6652 42.9413 65.4256 35.4139 102.32 41.7792C104.363 40.601 105.475 39.4944 105.997 37.0681C96.7831 33.7593 86.8011 32.5883 73.881 32.7931C62.2691 33.1256 41.3754 37.4289 30.2203 44.0303L33.6254 39.7866C41.4279 35.2266 61.7582 29.1307 76.9922 28.8277C87.7463 28.6265 93.3309 29.2306 106.096 32.6757C104.985 30.4806 102.32 29.3879 98.4691 27.6513C86.0953 22.1017 62.9925 21.5872 44.0626 29.9186C46.4665 28.3554 48.8068 26.8881 51.8704 25.4808C58.108 22.6444 68.3144 19.8699 81.1027 20.0903C91.3002 20.2548 103.401 23.8159 110.832 31.1685C112.066 32.6268 112.775 34.1707 113.087 35.4139C118.977 38.3776 122.369 41.1648 124.294 44.461C125.073 46.1241 125.415 47.9885 125.052 50.0509C127.498 51.5142 128.659 52.726 129.862 54.3645C130.745 55.7 131.381 57.2215 131.539 58.622C131.796 60.4653 131.997 62.526 130.068 64.9488C132.09 65.9275 133.669 68.7039 133.914 69.9399C134.833 74.3705 131.997 78.6894 128.233 82.035C123.909 85.8354 114.382 90.3242 106.622 92.3095C91.1949 96.1906 77.5838 97.8412 66.7333 99.8355C71.5649 100.984 78.1825 102.559 88.9841 102.559C111.978 102.559 132.326 91.674 132.326 91.674C132.326 91.674 131.866 93.1077 131.419 94.3523C116.815 103.19 93.5357 106.924 83.6322 106.474C73.5346 106.003 65.0666 104.504 56.7688 101.959C54.2161 102.626 51.7095 103.426 49.2971 104.504C61.9366 110.248 71.474 111.547 82.2841 112.321C93.2905 113.138 111.524 110.485 126.929 104.909C126.234 105.604 125.866 106.728 125.143 107.377C117.271 111.503 100.596 115.672 92.2279 116.015C83.9069 116.351 73.7184 116.052 64.9093 114.378C57.2676 112.899 51.0826 110.485 44.5966 107.647C43.3974 108.503 42.8109 109.658 42.6008 110.884C67.9411 124.127 91.7009 124.42 118.697 116.036L116.22 118.415C86.4856 130.452 63.2372 125.782 45.2528 117.105C44.6718 116.848 43.9488 116.557 43.4289 116.22C45.0781 119.12 58.8344 129.153 74.1858 130.416C84.779 131.287 97.7108 129.474 105.375 126.412L100.897 128.752C97.168 130.571 87.3434 134.705 73.5611 133.796C55.2281 132.565 44.9082 124.467 40.2812 120.215C38.142 118.228 37.1178 115.922 36.4736 113.109C32.3298 110.926 29.7162 108.687 27.5629 105.317C26.2849 103.335 26.544 101.126 26.8714 99.2596C26.9677 98.6748 27.1305 98.1249 27.3528 97.5983C25.3536 96.1539 23.3439 94.6046 22.4825 93.0535C20.6741 89.7868 21.7858 86.9751 23.0375 84.7956C21.9398 83.5771 20.9455 82.3222 20.4868 81.0737C20.0001 79.549 19.9213 78.1382 20.0526 76.5468C20.394 73.791 21.8611 71.2773 23.7517 69.0996C27.7695 64.4867 34.0542 60.8871 44.8643 57.3143C55.4069 53.8236 59.6694 53.3037 67.6314 51.4514C76.9272 49.2877 88.0524 48.6011 97.3746 45.3434C71.4215 40.7811 44.4653 44.9213 22.4913 60.0503L23.9793 55.8421Z" fill="white"/>
</svg>
