<svg width="450" height="94" viewBox="0 0 450 94" fill="none" xmlns="http://www.w3.org/2000/svg">
<path d="M366.91 5.98653H294.496V23.8634H321.831V88.0146H339.573V23.8634H366.91V5.98653Z" fill="white"/>
<path d="M449.155 5.98653H418.314C413.865 5.98653 409.946 6.4212 406.332 7.32159C383.177 13.0632 373.904 32.7408 374.987 49.6951C376.067 66.6427 387.843 84.9853 411.698 87.7596C413.612 87.9836 415.415 88.0146 417.079 88.0146H449.155V70.2709H417.079C415.952 70.2709 414.774 70.2531 413.756 70.1356C399.117 68.4324 393.258 57.4526 392.691 48.5641C392.125 39.6711 396.474 28.0437 410.603 24.5376C412.803 23.992 415.324 23.7281 418.314 23.7281H449.155V5.98653Z" fill="white"/>
<path d="M417.578 56.2217H446.326V38.4801H417.578C412.679 38.4801 408.707 42.452 408.707 47.3509C408.707 52.2498 412.679 56.2217 417.578 56.2217Z" fill="white"/>
<path d="M67.6016 54.003L55.7812 67.5421L81.2116 89.7412L93.0297 76.2022L67.6016 54.003Z" fill="white"/>
<path d="M179.31 53.3814C184.513 47.7817 187.307 40.2882 186.875 32.3776C186.338 22.5776 180.991 13.9486 172.569 9.29586C168.595 7.10034 164.026 5.98484 158.992 5.98484H98.2227C103.106 11.2009 107.071 17.284 109.854 23.9837H158.992C161.001 23.9837 162.762 24.3695 164.084 25.1014C168.386 27.4787 169.069 31.6813 169.16 33.3756C169.258 35.1231 169.023 39.5142 164.793 42.5125C163.132 43.6879 160.824 44.3354 158.291 44.3354H153.483H114.365C114.403 45.2203 114.432 46.1052 114.432 46.9989C114.432 52.3014 113.738 57.4398 112.449 62.3343H153.483H158.291C165.439 62.3343 169.178 68.4285 169.178 71.6929V88.0107H186.919V71.6929C186.919 65.2173 184.143 58.5287 179.31 53.3814Z" fill="white"/>
<path d="M222.519 47.3512V43.1376C222.519 30.9847 232.403 21.1004 244.554 21.1004C256.705 21.1004 266.589 30.9847 266.589 43.1376V47.3512H222.519ZM244.554 3.35883C222.621 3.35883 204.777 21.2024 204.777 43.1376V88.0127H222.519V65.0928H266.589V88.0127H284.331V43.1376C284.331 21.2024 266.487 3.35883 244.554 3.35883Z" fill="white"/>
<path d="M90.5043 64.6421C93.17 58.1243 94.3875 51.0565 93.8952 43.8202C92.1388 17.9641 69.6691 -1.63368 43.8241 0.107208C17.9657 1.8614 -1.64314 24.3267 0.108836 50.1806C1.79428 74.9611 22.492 94.0022 46.9665 94C48.0332 94 49.1066 93.9667 50.1822 93.8913C57.0282 93.4278 63.5283 91.4829 69.383 88.2983L54.0632 74.9256C51.9763 75.4091 49.8096 75.6907 47.5764 75.6907C31.731 75.6907 18.8861 62.8458 18.8861 47.0004C18.8861 31.1549 31.731 18.3101 47.5764 18.3101C63.4218 18.3101 76.2667 31.1549 76.2667 47.0004C76.2667 48.6503 76.096 50.2582 75.8276 51.8305L90.5043 64.6421Z" fill="white"/>
</svg>
